<?xml version="1.0" encoding="utf-8"?>
<!-- Generator: Adobe Illustrator 23.0.0, SVG Export Plug-In . SVG Version: 6.00 Build 0)  -->
<svg version="1.1" id="Layer_1" xmlns="http://www.w3.org/2000/svg" xmlns:xlink="http://www.w3.org/1999/xlink" x="0px" y="0px"
	 viewBox="0 0 403 527" style="enable-background:new 0 0 403 527;" xml:space="preserve">
<style type="text/css">
	.st0{fill:#096D31;}
	.st1{fill:#028FBE;}
	.st2{fill:#E40000;}
	.st3{fill:#107137;}
	.st4{fill:#056B2E;}
	.st5{fill:#1E7943;}
	.st6{fill:#076C30;}
	.st7{fill:#DAE9E0;}
	.st8{fill:#19763F;}
	.st9{fill:#14743B;}
	.st10{fill:#17753D;}
	.st11{fill:#FEFEFE;}
	.st12{fill:#036A2D;}
	.st13{fill:#046A2D;}
	.st14{fill:#E8F1EC;}
	.st15{fill:#00742F;}
	.st16{fill:#01742F;}
	.st17{fill:#E50505;}
	.st18{fill:#E40303;}
	.st19{fill:#E40404;}
	.st20{fill:#097836;}
	.st21{fill:#E50707;}
	.st22{fill:#E50909;}
	.st23{fill:#040404;}
	.st24{fill:#030303;}
	.st25{fill:#090909;}
	.st26{fill:#050505;}
	.st27{fill:#E50C0C;}
	.st28{fill:#FDF5F5;}
	.st29{fill:#E50808;}
	.st30{fill:#E60F0F;}
	.st31{fill:#E82222;}
	.st32{fill:#E71919;}
	.st33{fill:#E71818;}
	.st34{fill:#E61616;}
	.st35{fill:#FBDEDE;}
	.st36{fill:#F9CBCB;}
	.st37{fill:#EB3F3F;}
	.st38{fill:#E71F1F;}
	.st39{fill:#E93030;}
	.st40{fill:#E82323;}
	.st41{fill:#E92929;}
	.st42{fill:#FDF4F4;}
	.st43{fill:#FDF3F3;}
	.st44{fill:#FBE5E5;}
	.st45{fill:#FCEFEF;}
	.st46{fill:#FDF1F1;}
	.st47{fill:#FBE0E0;}
	.st48{fill:#FDEFEF;}
	.st49{fill:#FDF6F6;}
	.st50{fill:#C4C4C4;}
	.st51{fill:#EFEFEF;}
	.st52{fill:#FDFDFD;}
</style>
<path class="st0" d="M96.5,193.1c3.8-3.5,7.7-3.3,10.4,0.5c1.5,2.1,1.5,4.4,0.4,6.5c-1.1,2.1-3,2.6-5.4,2.5c-3.6-0.2-6.6-2.2-10-3.1
	c1.6-3.4,3.9-1.5,5.8-0.7c3.3,1.3,5.2,0.4,5.8-3.1c-1.1,2-2,4.6-5,3.2c-2.6-1.2-3.7-3.2-1.9-5.9L96.5,193.1z"/>
<path class="st1" d="M388.9,20.8c-63.6,57.6-138,81.8-223.2,71c-50.9-6.4-96-26.8-135.6-59.2c-4.6-3.8-9.1-7.7-14.2-12.1
	c0,2.5,0,4.2,0,5.8c0,99.9,0,199.8-0.1,299.7c0,5.2,0.9,10.1,2.4,15c11.4,37.6,34.4,67.3,63.2,93c27.8,24.7,59.3,43.8,92.2,60.7
	c9.3,4.8,18.9,8.8,27.7,14.6c0.9,0,1.9,0,2.8,0c8.7-2.8,16.4-7.9,24.5-11.9c22.4-11,43.9-23.5,64.3-37.7
	c26.2-18.1,49.9-39.1,68.5-65.1c13.2-18.4,24.2-38,28.2-60.7c0-104.5,0-209.1,0-313.6C389.5,20.5,389.2,20.6,388.9,20.8z
	 M373.8,327.9c0,7.4-3.2,14.1-5.9,20.8c-12.5,31-33.5,55.6-58.6,77c-26.4,22.5-56,40-86.7,55.7c-5.6,2.9-11.3,5.6-16.9,8.6
	c-1.8,0.9-3.1,1.2-5.1,0.3c-37.1-18.5-73.5-38.2-105.1-65.5c-26.1-22.5-47.6-48.4-59.6-81.3c-2.8-7.8-4.2-15.6-4.2-24
	c0.2-86.4,0.1-172.9,0.1-259.3c0-1.7,0-3.3,0-4.7c114.2,74,227.8,74.1,342.2,0c0.5,0.4-0.1,1.7-0.1,2.8
	C373.8,148.2,373.8,238,373.8,327.9z"/>
<path class="st2" d="M79.1,289.4c1.6-41.5,19.9-78,58.6-102.6c50-31.7,114.5-20.4,152.8,25.9c43.2,52.3,37.2,131.2-13.5,176
	c-56.6,50.1-143.3,34.9-181.2-31.8C84.5,337.2,79.3,315.9,79.1,289.4z"/>
<path class="st3" d="M287.6,178.1c0.3,0.3,0.7,0.7,1,1c0.6,2.3-0.8,4.1-1.4,6.1c-1.6,5.5-0.8,6.7,5.1,6.7c0.3,0.3,0.6,0.6,0.9,1
	c-2.5,3.6-5.5,4.9-9.4,1.8l0.1,0.1c-2.6-4.3-0.5-8.2,1.1-12C285.6,181.2,286.7,179.7,287.6,178.1z"/>
<path class="st4" d="M333.3,239c-1.6-4.2-3.3-8.3-4.9-12.4c-2-3.6-4.1-7.2-6.1-10.8c-0.4-0.8-1.7-1.7-0.4-2.8c1-0.8,2-0.5,3,0
	c2.9,1.3,3.7,3.8,3.9,6.8c0.1,1.3-1.6,2.9,0.6,3.9c0.4-1.8,1-3.5,1-5.4c0-2.2-0.6-4.3-1.9-6.1c-1.5-2.1-10.4-3.2-10.4-1.7
	c0.1,6-5.3,6.2-8.2,9c-1.3,1.3-3.7,1.7-3.6,4.7c3.6-2.3,6.8-4.5,10.1-6.4c1.1-0.6,2.3-3,3.8-0.9c1.6,2.5-1.4,2.5-2.4,3.4
	c-1.9,1.6-5,2.1-4.8,5.6c2.2,0.4,4.7-0.3,6.6,1.7c-2.6,2.1-6.3,2.8-8.1,7.2c3.7-2.5,6.7-4.1,10.3-4.6c2.5-0.4,3-3.1,1-4.7
	c-1.3-1-2.9-1.6-4.4-2.4c2.3-2.3,4.1-3.6,5.8,0.7c1.5,3.9,3.4,7.6,5.3,11.3c1.9,3.6,0.4,5-3.3,5.3c0.4-2.9,2.1-6.5-2.5-7.3
	c-2.1-0.4-3.8,0.7-4.1,2.9c-0.3,3.2,2.5,2.6,4.7,2.7c-1,3.2-3.5,4.5-5.8,6.2c3.4,1,5.7-1.3,8.5-2.1c1.5-0.4,2.9-1.4,4.4-1.3
	C334.2,241.4,334.3,241.6,333.3,239z"/>
<path class="st5" d="M156,175.8c-0.4-2.3,0.6-4.5-2.4-5.1c-1.1-0.2-1.2-2.1-0.1-3.1c1.1-1,2.3-0.6,3.1,0.6
	C158.4,170.6,158,172.9,156,175.8z"/>
<path class="st6" d="M78.6,240.6c-1.9,1.3-0.6,2.7,0.5,4.3c-4.4,0.3-7.5-1.2-9.6-4.7c-1.8-3.1-0.8-5.7,1.5-8.5
	c0.6,2.5,1.1,4.7,4.2,4c1-1.4,0.9-2.8-0.1-4.2c-0.8-1.1-0.5-2,0.8-2.3c1.3-0.3,1.9,0.5,2.1,1.7c0.4,2.3-0.2,4.1-2.1,5.5
	c0.7,1.9,2.6,2.9,3.8,1.5c2.9-3.1,6.8-4.4,10.7-6.4c-3-0.9-5.1,0-7.3,0.8c-0.9,0.3-1.9,1-2.2-0.4c-1-5.4-4.6-5-8.6-3.7
	c0.1-1.9,1.7-2.9,1.3-4.6c-1.9-0.5-2.5,0.8-3,2c-1.4,3.1-2.7,6.2-4.1,9.2c-1.7,3.7-0.2,6.7,2.6,9c3.3,2.6,7,4,11.2,2
	c1.8-0.8,2.4-2.3,1.2-4.2C81,240.5,79.8,239.8,78.6,240.6z"/>
<path class="st7" d="M121.6,170.9c1.5-2.4,3.9-3.5,6.6-4.1c-1.7,2.3-3.9,3.9-6.7,4.7C121.4,171.2,121.4,171,121.6,170.9z"/>
<path class="st8" d="M283.8,194.8c0.1,0.6,0.4,1.2,0.4,1.8c0.1,1.4-0.6,2.3-2,2.6c-0.9,0.2-1.5-0.4-1.7-1.1
	c-0.4-1.4,0.5-2.3,1.7-2.8C282.7,194.9,283.3,195,283.8,194.8C283.9,194.9,283.8,194.8,283.8,194.8z"/>
<path class="st9" d="M299.7,207.4c0,1.2-0.6,2.1-1.9,2.2c-1.1,0-1.7-0.7-1.6-1.7c0-1,0.6-1.7,1.7-1.9
	C299,205.8,299.7,206.2,299.7,207.4z"/>
<path class="st10" d="M208.7,157.7c-0.1,1.4,1,3.3-1.5,3.7c-0.9,0.1-1.4-0.7-1.5-1.4c-0.2-2.4,1.4-2.3,3-2.1
	C208.8,157.8,208.7,157.7,208.7,157.7z"/>
<path class="st11" d="M187.9,408.4c-38.5-3.3-71.5-26.5-89.8-69.1c-26.4-61.6,5-133.5,66.8-154.9c47.5-16.4,99.3,2.7,127,46.8
	c35.9,57,16,133.3-43,165.1C232.4,405.3,214.6,409.3,187.9,408.4z"/>
<path class="st12" d="M313.8,203.5c-0.5-1.1-1.1-2.2-1.8-3.1c-6.7-8.8-14.3-16.6-22.7-23.7c-0.9-0.7-3-1.2-1.8-3
	c1-1.5,2.7-1.3,4.3-0.9c2.7,0.7,3.3,3.3,5,5.5c0.6-3.8-1-6.1-3.6-7.7c-1.9-1.2-4.6-1.6-6.1,0c-3.9,4.1-4.1,1.2-4.3-2.1
	c-1.9,2-1.8,1.8-3.8,0.5c-3.9-2.6-7.9-5-12.1-7.7c-0.6,2.9,1.4,3.4,2.7,4.3c1.4,1,3.4,1.3,4.3,3.3c-2,0-3.6,0-5.3,0
	c-3.9,0.1-5.1,1.8-2.8,4.7c2.4,3.1,2.5,6.2,2.2,9.9c2.6-3.5,4.9-7.2,7.2-10.8c0.6-0.9,0.9-2.7,2.6-1.7c1.4,0.8,1.4,2.3,0.5,3.7
	c-1.1,1.7-2.4,3.3-3.3,5c-1.1,2.1-3.8,3.6-2.7,7.3c2.9-4.2,5.5-8,8.1-11.8c0.6-0.9,1.2-1.8,2.5-0.7c0.9,0.8,1.5,1.4,0.5,2.6
	c-2,2.6-3.8,5.2-5.7,7.9c-0.9,1.2-2.3,2.4-1.2,4.9c2.8-3.8,5.3-7.1,7.7-10.4c0.9-1.2,1.5-3,3.5-1.3c0.4,0.5,0.5,1.1,0.8,1.6
	c0.1-0.2,0.2-0.4,0.3-0.6c0.8,1.2,3.8,1.2,1.9,4c-3.9,5.9-3.8,6,1.7,8.8c-0.4,0.2-0.8,0.4-1.2,0.6c0.1,0.1,0.2,0.1,0.3,0.2
	c0.6,0.3,1.2,0.5,1.8,0.2c2.9-4.8,2.7-5.2-3-5.7c1.4-2.9,2.6-5.1,5.8-1.5c1.5,1.7,3.6,2.8,5.1,4.1c-1.4,2.3-2.9,2-3.9,2.6
	c-3.5,2.3-6.2,5.1-6.2,9.6c0,1.6,1,2.6,2.6,2.7c1.4,0.1,2.4-0.7,2.8-2c0.3-1-0.2-2.1-1.1-2.2c-4.4-0.5-1.6-2.4-0.5-3.4
	c2-2,4.3-3.7,7.4-3c3.4,0.7,2.6,3.9,3.9,6c-2.6,0.6-7.2-1.6-6.1,3.2c0.9,3.8,0.4,7-1.2,11.2c3-2.4,5.1-4.5,7.6-6
	c2.2-1.3,3.4-5.2,7.1-3.2C313.6,204.7,314,204,313.8,203.5z M269.5,177.3c-0.6-2.1-1-3.6-1.5-5.4c1.9-0.1,3.9-0.8,4.2,0.5
	C272.6,174.1,270.8,175.5,269.5,177.3z M303.2,208.2c-0.9-3.9-0.9-4,2.7-4.8c2.1-0.5,1.4-2.5,2.5-3.4
	C310.8,202.9,310.8,202.9,303.2,208.2z"/>
<path class="st13" d="M208.8,157.8C208.8,157.8,208.8,157.7,208.8,157.8c0-0.1-0.1-0.1-0.1-0.1L208.8,157.8z"/>
<path class="st13" d="M212.6,144.6c-2.9-0.3-5.8-0.7-8.7-0.6c-2.1,0-3.3-0.7-3.9-2.6c-1.3,0.8,0.1,3.4-1.4,2.9
	c-6.1-2.1-12.6,3-18.5-1.1c-0.4-0.3-1-0.1-0.8,0.5c0.9,3.4-1.7,1.7-2.9,2c-4.9,1.2-9.9,2.3-14.8,3.5c-0.8,0.2-2.2,0-2.1,1.2
	c0.1,0.6,1.2,1.1,1.9,1.6c0.4,2.9,2.2,5,4.1,6.9c2.2,2.2,4.9,4.2,7.9,0.9c1.1-1.2,1.4-0.3,2.1,0.3c1.1,1,1,2.9,3,3.7
	c-0.7-4.2-1.4-8.1-1.9-12.1c-0.1-1.2-1.6-3.4,0.9-3.7c1.8-0.2,2.5,1.4,2.6,3.2c0.2,2.3,0.5,4.6,0.9,6.9c0.4,2-0.1,4.4,2.5,6
	c-0.6-5.7-1.2-11.2-1.8-17.1c2.2,0.9,3.6,1.5,5,2.1c1.9,0.9,4.4,1.5,0.5,3.5c-1.5,0.8-1.6,2.6-0.9,4.1c0.8,1.6,2.2,1.6,3.5,0.9
	c2-1.2,2.8,0.1,3.6,1.5c0.6,1,0.5,2.6,2,3.3c0-3.2-0.2-6.1,0.1-9c0.2-2.4-2.1-6.6,1.1-6.7c4.2-0.2,2,4.5,2.5,7
	c0.6,3-1.1,6.4,1.9,9.8c0-3.2,0-5.6,0-8.1c0-9.7,0-9.7,9.5-8.8c0.1,0,0.1,0.2,0.2,0.3c0,0.9-0.8,0.7-1.3,0.9
	c-7.9,3.7-7.9,3.7-1.2,9.1c0.2,0.1,0.2,0.5,0.3,0.8c2.3,0.8,1.3,3.9,3.5,5.1c0.2-1.8,0.3-3.4,0.5-5c0.4-3.3,0.3-6.9,1.4-10
	C215.3,144.9,215.8,145,212.6,144.6z M171.7,157.3c-1,1.1-2.2,1.3-3.7,0.6c-2.1-0.9-3.4-2.5-4.6-4.3c-0.5-0.7-0.9-1.5-1.8-1.6
	c-0.1,0-0.1,0-0.2,0.1c0,0-0.1-0.1-0.1-0.1c0.1,0,0.2,0,0.2,0c1.8-0.7,4.1-4.2,4.5,1.2c0.1,1.3,1.5,1.8,2.9,1.5
	c0.9-0.2,1.5-2.6,2.7-0.4C172.2,155.3,172.4,156.4,171.7,157.3z M174.4,154.3c-1.7-2.2-3.1-3.5-5-4.3
	C174.5,148,174.5,148,174.4,154.3z M193.5,155.9c-2.6-3.2-1.7-7.2-6-8.9C193.9,146.2,193.9,146.2,193.5,155.9z M211.4,152.9
	c0,0.9-0.2,1.8-0.3,3c-2.1-0.2-2.6-2.2-4.6-3.3c1.9-1,3.1-1.6,4.2-2.2C212,151.1,211.4,152.1,211.4,152.9z"/>
<path class="st14" d="M138,167.5c0.7-1.7,1.1-2.9,2.6-3.4c0.7,1.4,1.3,2.9,2.3,4.9C141,168.3,139.6,167.9,138,167.5z"/>
<path class="st13" d="M148.7,165c-0.5-4-3.3-5.4-7.6-5.8c2.3-1.2,3.9-2,5.5-2.8c-1.8-2.3-3.4-0.8-5,0c-8,3.7-15.7,7.8-22.8,13.1
	c-1.7,1.3-3.5,1.7-5.5,1.6c1.5,5.2-3,2.8-5,3.9c0.9,1.2,1.8,2.4,2.8,3.7c-5.7,0.8-7,2.3-7.4,6.3c-0.5,5.7,6.4,0.3,6.4,4.7
	c1.2-0.3,1.7-1.1,1.7-2.4c0.1-1.7-0.5-3.6,0.5-5.2c4.4,1.4,4.5,7.2,10.1,8.3c-3.1-4.1-5.7-7.5-8.2-10.9c-0.7-1-2.4-2.1-0.4-3.4
	c1.6-1,2.6,0.1,3.5,1.3c1.8,2.5,3.5,5.1,5.3,7.6c0.8,1.1,1.5,2.7,3.7,2c-2.4-3.5-4.4-7-6.9-10.1c-2.8-3.5-1.5-5,2.1-5.9
	c1.4-1.1,3.3-1.4,4.3-2.9c-1,1.8-3.3,1.9-4.4,3.5c-0.8,2.4-0.4,4.6,1.4,6.4c1.3,1.4,3,1.7,4.7,0.9c1.8-0.8,1.6-2.2,1.2-3.9
	c-0.3-1.4-0.3-4.1,0.1-4.2c2.3-0.7,2.3,1.8,3.3,3c1.6,1.8,1.6,5,5.5,6c-2.4-4.5-4.4-8.4-6.7-12.2c-1.1-1.9-0.9-2.9,1.1-3.8
	c2.2-1,4.2-2.2,7.3-3.8c-1.7,2.8-2.8,4.6-4,6.3c-1.8,2.8-0.1,4.5,2.3,4.2c3.6-0.4,6.1,1.2,8.7,3.3c0.8-2.3-1.6-3.4-1.5-5.5
	C146.6,167.8,149.1,168.1,148.7,165z M108,184.6c-0.7-0.1-1.6,0.1-1.5-1c0.1-1.2,0.8-2.1,1.9-2.2c1.1-0.2,0.9,0.9,1,1.6
	C109.4,183.9,109.4,184.8,108,184.6z M125,177.4c-1.9-4-1.9-4.1,2.1-4.4C125.5,173.9,125.1,175.4,125,177.4z M144.3,166.5
	c-0.5-1.5-2.7-2.5-1.2-4.3c0.3-0.3,1.6-0.2,2.1,0.2C147.4,164.2,143.7,164.9,144.3,166.5z"/>
<path class="st13" d="M257.8,156.7c-3.5-2.5-9.3-1.3-11.1-6.7c-0.3-0.9-0.8-0.3-0.9-0.1c-0.9,3.3-2.6,0.9-3.9,0.5
	c-6.5-1.7-12.9-3.7-19.6-4.5c0.2,2.2,1.7,2.5,3.3,2.8c3.3,0.5,1.4,2,0.6,3.3c-0.7,3.8,0.2,6.4,5.5,5.7c-2.5,3.3-4.2,3.5-5.9,0.6
	c-1.5-2.5-1.4-5.3-1.2-8c-0.4-0.1-0.8-0.2-1.2-0.2c-0.5,3.7-0.6,7.4,1.4,10.7c1.1,1.9,3.1,3.1,5,2.1c1.9-1,2.5-0.7,3.4,1
	c0.6,1.1,1.9,1.6,3.3,1.1c1.3-0.4,2-1.3,2-2.7c0-0.9,0-2,0.5-2.6c1.6-1.7,2-3.5,0.5-5.3c-1.4-1.7-3.2-1.5-5-0.4
	c-0.6,0.4-1.4,1-1.9-0.1c-0.3-0.8-0.4-1.8-0.3-2.7c0.1-0.7,0.8-0.7,1.5-0.7c7.8,0,10.6,3.7,8.2,11c-0.2,0.6-0.5,1.1-0.6,1.7
	c-0.4,2.2-2.3,4.4-0.4,7.2c1.5-4.7,3-8.9,4.3-13.1c0.7-2.4,1.8-2.9,3.9-1.7c1.1,0.6,2.3,0.9,3.4,1.3c4.6,1.9,4.5,1.9,1.4,6.5
	c-0.7-2.4-1.8-4.6-4.7-4.2c-1.9,0.3-2.9,1.7-3.3,3.4c-0.3,1.4,0.3,2.5,1.5,3.1c2.3,1.1,3-1,4.2-3.1c1.4,3.5,0.7,6.2,0.2,9.4
	c2.5-1.4,2.6-3.6,3.5-5.3c1-2.1,1.6-4.5,3-6.2C260.4,158.1,260.5,158.6,257.8,156.7z M229.9,155.2c-0.8,0.4-1.7,0.4-2-0.3
	c-0.7-1.6,0.7-2.3,2-3.5C230.3,152.9,231.9,154.1,229.9,155.2z M234.2,156.2c1-0.6,1.9-1.7,3.3-0.9c0.4,0.2,0.7,0.5,0.9,0.6
	c0,1-0.2,1.2-1,1.4c-3.1,0.4-4.7,1.4-0.7,3.5c0.7,0.4,0.5,1.1,0.1,1.5c-0.3,0.3-0.8,0.5-1.2,0.5c-1.4-0.2-1.9-1.4-2.3-2.5
	C232.6,158.7,232.6,157.2,234.2,156.2z"/>
<path class="st4" d="M91.1,204.5c3.3,1.9,5.5,5.7,9.8,6.1c-2.9-3.1-6.1-5.9-9.3-8.6c-0.8-0.7-2.5-1.2-0.9-2.7
	c2.2-1.5,4.1-3.5,5.6-5.7c0-0.2,0.1-0.4,0.2-0.6c0.6-3.2,4.4-4.1,5.2-7.2c-2-1.1-3,0.4-4,1.5c-2.9,3.2-5.8,6.5-8.6,9.7
	c-0.7,0.8-1.3,2.2-2.5,1.8c-1.3-0.5-1.4-2-1.3-3.2c0.2-3,2.1-4.6,4.7-5.7c1.3-0.6,3.1,0,4.2-1.4c-2.8-0.8-5.3-0.2-7.7,1.1
	c-3.9,2.1-5.8,7.3-3.1,9.7c4.4,3.9,0.1,3.5-1.9,4.5c0.7,1.7,3.1,1.8,3.5,3.7c-3.2,0.1-5.3,1.7-6,4.8c-0.4,1.9,0.1,4.6,1.6,4.9
	c2,0.4,4.2-1.8,6.5,0.2c0.4,0.4,0.8-1.6,0.6-2.7c-0.3-1.6-1.4-3.1-0.4-5c2.3,0.8,5.8,3.3,4.9,4c-3,2.2-4,8.3-11,5.1
	c5.1,4.2,7.7,4.2,9.9,0.4c1.8-3,3.9-4.6,7.6-3.7c-3.4-3-6.8-5.6-10.1-8.4c-1-0.9-3.8-1.3-1.7-3.7C89.2,200.9,90,203.9,91.1,204.5z
	 M83.1,213.4c-0.9,0-1.5-0.2-1.3-1.2c0.1-1,0.7-1.7,1.6-2c1.1,0,1,0.9,1.2,1.6C84.7,212.9,84.3,213.5,83.1,213.4z"/>
<path class="st15" d="M240.9,338.6c1.6,1.4,3.2,2.8,5.1,4.4c-3.9,1.2-84.6,1.6-93,0.5c4.3-3.5,8-6.8,12.1-9.7c2.7-1.9,3.1-3,0.8-5.9
	c-20.7-25.6-9.4-64.4,21.5-74c25.9-8.1,53.9,10.8,56.6,38.1c1.2,12.3-1,23.8-8.4,33.7c-2.5,3.4-2.4,5.4,0.8,7.8
	c0.8,0.6,1.4,1.6,2,2.5C239.8,336.3,240.8,337.1,240.9,338.6z"/>
<path class="st16" d="M240.9,338.6c-0.8-0.9-1.7-1.7-2.5-2.6c2.9-2.2,4.6-4.8,4.1-8.8c-0.9-6.9,0-10.5,3-13.6
	c0.7,3.8-0.1,7.6,1.9,11.3c1.8-4.4,3.4-8.2,1.4-12.9c-1.6-3.8-2.4-7.9-1.4-13.3c1.4,3.1,2.4,5.2,3.4,7.3c0.3,0.6,0.8,1.4,1.8,1.2
	c1-0.2,0.8-1.1,0.8-1.9c-0.2-4,0-7.7-3.6-10.9c-3.8-3.3-4.6-8.2-3.6-13.9c1.4,2.8,2.6,5.2,3.9,7.5c0.4,0.7,1.1,1.8,2.1,1.1
	c0.5-0.3,1-1.4,0.8-2c-0.8-3.2-0.8-6.5-4.6-8.4c-4.4-2.1-7.6-5.6-6.9-11.2c1.5-0.1,1.6,1.1,2.3,1.7c1.1,0.9,2,3.1,3.6,1.5
	c1.4-1.3-0.1-2.8-1-4c-1.6-2-3.7-3.3-6.1-4c-3.4-1-5.7-3-7-6.7c2,0.7,3.8,1.3,5.8,2.1c-2.9-4.4-4.3-5.3-8.5-6
	c-2.4-0.4-4.8-1-7.2-1.8c-1.4-0.5-3.3-1.3-3.1-3c0.2-1.7,2.1-2,3.6-2.3c0.6-0.2,1.3-0.2,2.6-0.5c-4.3-2.8-7.8-5.3-12.7-5.1
	c-4.1,0.2-8.1-0.8-9.8-5.3c-0.5-1.2-0.8-2.2,0.8-3c3.5-1.6,9.6-1.1,11.7,1.9c3.5,5,9.3,6.9,13.1,11.7c1.3-2.5,0.3-4-0.9-5.5
	c-0.9-1.1-0.3-2,0.6-2.8c1-0.8,1.8-0.2,2.4,0.4c2.2,2.2,4.8,4.5,4,7.9c-1.5,6.1,2.5,8.6,6.7,11.4c1.7-2.5,1.5-5.2,1.7-8.1
	c3.7,2,4.5,5.5,3.7,8.5c-2,6.8,2.2,11.3,5,16.9c1.8-4.2,0.6-7.8-0.4-11.6c5,2.3,7.1,7.6,4.2,13.6c-2.2,4.6-2.4,8.5-0.6,13.2
	c3.4-1.2,4.2-4.7,6-7.4c1.8,6.3,1.2,9.9-3.1,14.3c-3.2,3.4-1.6,7.6-3.1,11.7c4.2-1.1,5-4.5,7-6.9c2.4,5.5,1.4,11.1-3.7,14
	c-4.3,2.4-5.8,5.8-6.8,10.5c2.3-1.3,4.2-2.4,6.5-3.7c-0.5,5.4-3.6,8.5-8.1,9.8c-2.9,0.9-5.4,2-6,4.9
	C244.2,338.1,241.6,336.9,240.9,338.6z"/>
<path class="st16" d="M174.5,244.4c2.2,1,5.4,0.3,5.5,3c0.1,2.8-3,3.3-5.1,3.8c-5,1.1-10.6,0.8-13.3,6.5c1.9,0.6,3.4-1.3,5.6-1.7
	c-1.1,3.8-3.5,5.7-6.7,6.7c-2.9,0.9-5.4,2.4-7,5c-0.6,1-1.7,2.1-0.4,3.3c1.4,1.2,2.2-0.2,3-1c0.8-0.7,1.3-1.6,2-2.5
	c1.3,4.9-0.1,8.3-5.9,11.2c-3.5,1.8-4.2,4.7-4.6,7.9c-0.1,1-0.5,2.4,0.9,2.7c1,0.2,1.7-0.8,2.1-1.5c1.1-2,2.1-4.1,3.6-7.2
	c1.3,6.1,0,10.8-3.8,14c-3.8,3.4-2.7,7.5-3.5,11.4c-0.2,0.8,0.2,1.3,0.8,1.3c0.5,0,1.3-0.4,1.5-0.8c1.2-2.3,2.2-4.7,3.5-7.6
	c1.3,4.2,0.7,8-0.7,11.4c-2.1,5-1.5,9.5,0.8,14.4c2.1-3.4,1.3-7.2,2.3-11.1c2.7,1.9,2.5,4.7,2.7,7.3c0.4,4.6-1.6,9.6,2.3,13.7
	c1.3,1.4-0.7,2.1-1.5,2.8c-1.2,1.1-2,0.2-2.4-0.9c-1.3-3.6-4-5-7.4-6c-4-1.3-6.5-4.3-7.2-9.3c2.4,1.3,4.3,2.4,6.5,3.6
	c-1-4.5-2.4-8-6.7-10.5c-5.3-3.1-6.4-8.5-3.9-14.1c1.9,2.4,2.9,5.5,6.5,6.9c-0.5-4.9,0.3-9.3-3.8-13.3c-3.5-3.4-3.8-8.2-1.8-13.2
	c1.5,3.4,3,6.4,6,8.4c1-4.4,2.7-8.2-0.3-13c-3.4-5.5-1.6-10.2,3.3-14.3c0.9,2.1-0.9,3.8-0.8,5.8c0.1,1.8-0.5,3.7,1.1,5.5
	c2.9-5.1,6.7-9.5,4.9-16.2c-1.1-4,0.5-6.1,3.7-8.7c0.6,2.6-0.5,5.5,1.7,7.9c4.3-2.8,8.2-5.4,6.6-11.7c-0.8-3.2,1.7-5.4,3.8-7.5
	c0.7-0.7,1.8-1.5,2.8-0.3c0.8,0.9,0.9,1.9,0.1,2.9c-0.9,1.3-2.3,2.6-0.7,5c3.7-4.2,9.2-6.1,12.5-10.8c2.4-3.4,8.7-4.4,12.3-2.5
	c2.1,1.1,1.2,2.6,0.5,3.9c-2,3.5-5.4,4.3-9.1,4.5C181.1,239.8,180.2,240.1,174.5,244.4z"/>
<path class="st17" d="M212.3,193.9c7.3,2.8,15.2,3.4,22.3,6.8c1.8,0.9,4,1.1,4,4.7c1-2.2,1.5-3.5,2.4-5.5c0.4,2.2,0,3.8,1.9,4.8
	c4.7,2.7,10.1,4.5,13.3,9.5c0.8,1.2,1.2-1.6,2.6-1.5c-0.6,2.4,1.3,3.4,2.7,4.8c2.2,2.1,4.6,4.2,6.6,6.5c1.7,1.9,1.4,2.6-1.3,3.2
	c-1.3,0.3-2,1.4-2.8,2.2c-3.9,4.1-7.8,8.3-12.2,12c1.3-4.2,2.5-7.8,1.1-12.2c-0.8-2.3,1-4.8,4.3-4.4c2.6,0.3,5.2,0.5,8.4,0.9
	c-2.2-3.1-4.7-5.2-7.2-7.3c-2-1.7-2.6,0.5-3.4,1.6c-3.9,5.1-7.8,10.2-12,15c1.1-4.5,4.5-7.5,6.8-11.1c1.3-2.1,2.9-4,4.1-6.2
	c0.6-1.1,0.6-2.5-0.7-3.3c-1.7-1.2-2.1,0.6-2.7,1.4c-3.5,5.2-7,10.5-10.8,15.7c0.8-4,1-7.7-1.1-11.6c-1.5-2.7,0.8-4.8,3.6-5.7
	c1-0.4,3.1-0.5,2.5-2c-0.8-2-2.2-4.1-3.9-5.4c-1.2-0.8-1.7,1.4-2.1,2.4c-2.8,5.8-5.4,11.6-8.5,17.2c0-4.3,2.5-7.7,3.9-11.4
	c0.8-2.3,1.9-4.5,2.9-6.8c0.7-1.7,0.4-3.4-1.1-4c-2-0.8-1.9,1.5-2.4,2.6c-1.6,3.7-2.9,7.5-4.4,11.2c-0.4,1-0.4,2.5-2.1,2.8
	c0.2-3.8,2.4-7.4-0.2-11c-0.2,0.1-0.4,0.1-0.5,0.2c-0.9,1.6-0.2,4.5-3.1,4.4c-1.8,0-2.1-1.7-1.9-3.1c0.3-2.7,1-5.5,4.1-6
	c2.3-0.4,2.9,1.8,3.5,3.6c0.2,0.7,0.3,1.5,0.5,2.5c0.4-0.6,0.8-1,0.8-1.4c-0.3-2.7,5.3-5.4,0.3-7.9c-7.1-3.6-10.9-2.6-13.5,3.1
	c-0.9,1.9-1.4,4.1-2,6.1c-2-0.5-1-1.8-0.8-2.8c-0.2-3.7,2-6.5,3.9-9.7c-1.8-1-3.7-1.2-5.6-1.2C210.1,196.6,210.5,195.3,212.3,193.9z
	"/>
<path class="st18" d="M275.7,336.5c2.2,0.9,3.4,3.1,5.1,4.6c3.8-6.7,3.8-6.7-2.9-10c-4.6-2.2-9.1-4.4-13.5-6.9
	c4.7,0.1,8.4,3,12.6,4.5c1.2,0.4,2.6,1.2,3.3,0c0.9-1.6-1.2-1.7-2.1-2.7c1.5-0.8,4.5-0.2,4.2-2.9c-0.3-2.3-2.2-3.1-4.5-3
	c0.3,1.4,2.8,1.5,1.8,3.3c-0.7,1.3-2.2,0.8-3.4,0.5c-1.3-0.3-2.4-0.9-2.4-2.4c0-1.7,1.1-2.5,2.5-2.9c3.7-0.8,6.7,0.4,9.1,3.2
	c1.1,1.3,1.1,3.1-0.7,3.9c-2.3,1,0.8,4.5-2.5,4.9c0.4,0.4,0.8,0.9,1.3,1.1c1.4,0.8,2-0.2,2.3-1.3c1-4.3,5.1-8.4,1.6-13
	c-3.8-5.1-9.5-5.7-15.7-5.9c0.5,1.9,4.2,1.7,2.5,4c-1.3,1.7-3.2,0.4-4.6-0.5c-0.8-0.5-1.5-1.3-1.2-2.3c0.4-1.3,1.5-1.9,2.8-2.1
	c6.7-1,12.9,0.3,18.5,4.9c1.8-3.3,1.8-6.7,2.3-11.2c-3.9,4.8-8.1,5.7-12.8,4.1c-1-0.3-2-0.9-2.1-2.2c-0.1-0.9,0.5-1.4,1.3-1.7
	c1.3-0.5,2.8-0.4,3.3,0.8c2.2,5.5,3.6,0.9,5.4-0.8c-2.9-0.4-5.9-0.9-8.8-1.3c0.2-2,1.9-1.5,3.2-1.9c1.1-0.2,2.4,0.4,3.8-0.4
	c-2.7-2.3-4.9,1.3-7.3,0.3c-0.4-0.2-0.8-0.4-1-0.8c0.3-0.3,0.7-0.6,1-0.9c5.6-6.6,6.1-8.2,12.3,2c0.3,0.5,0.7,0.9,1.3,1.8
	c1.2-2.2,0.8-4.2,1.1-6c0.2-1.7-0.7-3.8,2.1-4.9c1,6.2,0.2,12.2-0.8,18.1c-2.4,14.1-7.3,27.4-15.3,39.4c-0.5,0.8-1,1.5-1.5,2.3
	c-0.7,1.1-1.8,1.4-2.8,0.6c-1.1-0.9,0.3-1.5,0.7-2.2c0.6-1.1,1.5-2,2-3.1c0.5-1,2.1-2,0.5-3.1c-1.3-0.9-2.3,0.3-3.1,1.2
	c-3.4,4.4-3.6,4.4-7.1-0.4c-1.9-2.6-4.4-4.6-7.4-6.1c1.8-1.2,3,0.4,4.4,0.6c1.8,0.1,3,1.3,4.2,2.3c1.7,1.4,3.4,1.8,5.1-0.1
	c0.6-0.5,1.9-0.1,1.9-1.2c0-0.6-0.6-0.8-1.3-0.8c-1.2,2.6-2.8,3.9-5.5,1.6c-0.4-0.9-0.2-1.9,0-2.8C271,334.4,272,334,275.7,336.5z"
	/>
<path class="st17" d="M269.1,257.1c3-1.6,6-3.2,8.9-4.8c1.4-0.7,2.7-1.5,3.3-3.1c0.3-0.9,0.3-1.9-0.3-2.6c-0.9-1.1-1.7-0.1-2.4,0.3
	c-5.2,3-10.3,6.1-15.5,9.2c-0.6,0.4-1.3,0.6-2.8,1.4c2.8-4.5,6.8-5.6,10-7.7c2.5-1.7,5-3.2,6.2-6c0.7-1.7,0.9-3.4-1.3-4.2
	c-0.6-0.2-1.9-0.3-1.8,0.6c1.7,7.8-4.5,5.8-8.5,7.5c0.7-5.4,5.5-2.3,7.3-4.8c-0.2-1.6-4.2-0.8-2.7-3.5c1.4-2.5,3.9-3.8,6.6-3.1
	c4,1,3.5,4.5,3,7.6c2,0.3,2.8-1.5,4.7-1.7c-0.3,1.6-0.1,3.2,0,4.7c0.3,4.4,2.8-0.1,3.8,1.3c-1.6,1.3-1.6,2.8-0.7,4.7
	c4,8.8,6.4,18,7.6,27.6c0.5,4,0.6,3.4-3,2.9c-3.6-0.5-7.3,0.4-11,0.7c-1.1,0.2-2.5,1.2-3-0.8c0.5-0.1,0.9-0.2,1.4-0.3
	c1.9-0.4,4.8,0,4.9-2.4c0.1-2.1-2.8-1.7-4.4-2.3c-1.2-0.4-3.2-0.4-2.8-2.3c0.4-2,2.3-2.8,4.1-3.3c0.2-0.1,0.8,0.3,0.9,0.6
	c0.7,2.6,1.4,3.4,3.1,3.1c2.2-0.4,4.3-1.1,4-4.1c-0.1-0.7,0.2-1.5,0.5-2.2c0.9-2.7,0-3.4-2.6-2.6c-6,1.9-12,3.6-18.1,5.1
	c2.2-2.6,5.6-2.6,8.3-3.8c1.1-0.5,2.4-0.7,3.5-1.2c1.1-0.5,2.8-0.9,2.5-2.3c-0.4-2.2-2.3,0.1-3.4-0.7c0.4-1.7,3.2-2.7,1.6-4.7
	c-1.5-2-3.3-0.8-5,0.2c0.6,1.3,4.1,0,2.7,2.8c-0.8,1.7-2.7,3-4.6,2c-2.2-1.1-1.6-3.1-0.3-4.7c1.8-2.3,4.3-3.4,7.3-3.6
	c2.2-0.1,4.1,0.8,3.3,3.1c-0.9,2.5,2.6,2.9,1.8,5.2c-0.3,0.7,0.8,0.6,1.4,0.5c1-0.2,1.3-0.7,0.9-1.6c-1.3-3.5-2.6-6.9-3.9-10.4
	c-0.8-2.1-2.1-1.2-3.3-0.6c-3.6,1.7-7.2,3.5-10.8,5.2C269.1,258.5,269,257.9,269.1,257.1z"/>
<path class="st19" d="M117.8,340.2c-1.6,1.1-3.3,2.2-5.7,3.9c3.3-6.2-1.7-9.8-2.7-14.3c-0.1-0.2-0.7-0.5-1.1-0.5
	c-0.8,0.1-0.9,0.8-0.8,1.4c0.2,1.2,0.6,2.4,0.9,3.6c0.6,2.5,0.3,4.8-2.4,5.8c-2.5,1-4.1-0.8-5.4-2.6c-3-4.2-1.9-10.4,3.1-13.8
	c2.8-1.8,3.1-3.4,2.2-6.3c-1-3.4-1.4-6.9-2-10.4c-0.2-1.2-0.4-2.9,1.1-3.1c1.8-0.3,1.2,1.6,1.5,2.6c0.2,0.6,0.1,1.2,0.1,1.8
	c0.8,7,1.6,7.4,8.6,4.1c-1.4-0.9-2.9-1.7-4.2-2.7c-0.9-0.7-2.3-1.5-1.3-3c0.8-1.2,1.5-2.6,3.6-2.2c3.2,0.5,6.4,0.6,10.1,0.9
	c-3,1.7-5.9,1.7-9.3,1.8c2.5,3.2,5.8,3.1,8.8,4c-3.1,3.9-7.9,3.2-11.7,4.8c-1.1,0.4-3.1-0.1-2.7,2.2c0.4,2.2,1.4,2.5,3.5,1.9
	c6.1-2,12.2-3.7,18.5-5.2c-4.3,3.2-9.6,4-14.4,5.7c-7.1,2.5-7.2,2.4-2.9,10c0.9-2.9,1.5-5.7,4.3-7c2.5-1.2,5-1.4,7.6-0.2
	c1.5,0.7,1.8-0.4,2.3-1.4c1.1-2.2,2.8-4.1,5.1-5.4c-3.8,4.2-1.7,11.3-8,14.8c-0.1-3.2-0.6-6.1-4.2-6.7c-2-0.3-3.6,0.6-3.9,2.4
	c-0.3,2.1,1.7,1.1,2.7,1.3c1.2,0.3,2.7,0.6,2.5,2.1c-0.1,1.6-1.5,2.1-3,2.4c-1.6,0.3-2.8-1.1-4.4-1c-1,2.6,1.5,4.2,1.7,6.5
	C116.3,339.4,118.1,338.7,117.8,340.2z"/>
<path class="st17" d="M130.8,269.9c-4.2,0.6-7.8,0.7-10.8,4.1c-2,2.2-5,2.3-6.4-1.5c-0.9-2.4-1.9-4.8-3.1-7.9
	c-1.9,3.7-2.4,7.2-3,10.7c-0.3,1.8,1.2,1.9,2.4,2.1c3.9,0.7,7.9,1.2,11.8,2.1c1.5,0.3,3.3,0.3,4.3,2.4c-3.9-0.6-7.8-1.2-11.7-1.8
	c-0.8-0.1-1.5-0.6-2.3-0.4c-1.8,0.3-4.7-2.3-5.3,1c-0.7,3.8,2.8,2.2,4.5,2.5c4.8,0.8,9.8,1.3,14.9,2.4c-4,1.2-6.6,3.9-9.1,6.9
	c-1.7,2-4.1,1.7-5.7-0.8c-1.5-2.3-3-4.5-4.6-7c-2.5,3.6,1,8.4-3.3,11.8c-0.7-3.8-0.3-6.9-0.1-10.1c0.1-1,0.5-2.4-1.1-2.5
	c-1.2-0.1-1.2,1.2-1.4,2c-0.1,0.3-0.1,0.6-0.2,0.9c-0.5,3-0.9,6.1-5.1,5.6c-2.6-0.3-4.3-4.5-3.4-8.1c1.2-4.6,4.4-7.2,8.9-7.5
	c3.1-0.2,3.8-1.5,4.2-4c0.6-3.2,1.4-6.3,2.3-9.4c0.9-2.8,1.3-2.7,3.5-0.7c0.9,0.9,2.4,1.2,3.7,1.7
	C120.2,266.2,125.5,268,130.8,269.9z"/>
<path class="st17" d="M130.8,254.3c2.3-3.5,1.9-4.9-2.6-7.5c-1.1,1.5,1.8,3.3-0.2,4.6c-2,1.3-3.8,0-5.6-0.9
	c-0.6-0.3-1.1-0.5-1.6-0.9c-2.5-2-4.6-2.3-5.6,1.5c-0.4,1.7-1.3,2.8-3.5,2c0.9-4.5,4.5-8,5.4-13.6c-5.1,2.5-4.7,12.6-13.4,7.5
	c3.5,0.3,5-1.5,6-4.2c1.3-3.4,3.2-6.1,7.6-4.3c2.1,0.9,2.5-1.3,3.3-2.4c4.9-7,10.3-13.4,16.9-19c3.2-2.7,2.7-2.4,4.4,1
	c1.8,3.5,4.7,6.4,7.1,9.7c1.5,2,3.4,3.9,4.3,7c-2.7-1.1-5-6-7.1-0.2c-0.4,1.2-2,0.8-2.9,0.1c-1.7-1.2-3.4-2.7-2.6-4.9
	c1.5-4.3-1.3-4.2-3.7-3.6c-2.5,0.7-6.3-1-7.4,3.1c-0.1,0.5-0.4,0.9-0.9,1c-4.4,4.1-7.2,9.3-10.2,14.3c-0.7,1.2,0.1,1.7,0.8,2.1
	c1.7,0.9,3.1,2.4,5.3,2.6c0.5-1.9-1.9-2.9-1.2-4.8c4.6-0.4,9.5,2.2,11.7,6.3c1.9,3.5,0.5,6.1-3.6,6.1c-2.1,0-4.2-0.6-6.4-0.9
	C126.5,253.1,129.3,255.8,130.8,254.3z"/>
<path class="st15" d="M200.2,352.4c-15.3,0-30.6,0-45.9,0c-1.3,0-3.5,1-3.7-1.5c-0.2-2.9,2.4-1.8,3.7-1.8c30.6-0.1,61.2-0.1,91.8,0
	c1.3,0,3.5-1,3.4,1.7c-0.1,2.6-2.2,1.6-3.5,1.6C230.8,352.4,215.5,352.4,200.2,352.4z"/>
<path class="st20" d="M199.5,361.9c-13.1,0-26.2,0-39.3,0c-1.2,0-3.4,1.1-3.3-1.7c0-2.6,2-1.8,3.4-1.8c26.4,0,52.8,0,79.1,0
	c1.5,0,3.8-0.8,3.6,2.1c-0.2,2.6-2.4,1.4-3.6,1.4C226,361.9,212.8,361.9,199.5,361.9z"/>
<path class="st21" d="M161.7,224.7c1.2-1.3,0.6-4.5,3.3-2.7c1.7,1.1,2.6,3.3,1.4,5.3c-1.2,1.9-2.8,0.7-3.9-0.2
	c-4.1-3.3-6.9-7.5-8.3-12.5c-1.9-6.5-0.5-9.2,5.7-11.9c2.8-1.3,5.7-2.3,8.5-3.5c1.2-0.5,2.2-0.9,3.4,0.1c1.8,1.5-0.9,1.4-0.8,2.2
	c0.1,1.2,0.4,2.4,0.7,3.5c1.8,6,3.7,12,5.2,18.1c-2.6-2.3-2.6-5.8-4-8.7c-0.6-1.2-0.9-2.6-1.3-3.9c-0.4-1.2-1-2.7-2.4-2.4
	c-1.7,0.4,0.3,2.2-0.8,3.2c-1.5-0.3-2.6-3.2-4.5-1.1c-1.5,1.6-0.6,3.4,0.7,5c1.1-0.9-0.2-3.3,1.8-3.3c1.5,0,2.2,1.5,2.6,2.9
	c0.4,1.3,0.5,2.5-0.8,3.3c-1.4,0.8-2.7,0.3-3.8-0.7c-2.4-2.2-3.5-5.1-3.6-8.2c0-1.4,1.2-3.5,2.3-2.8c2.8,1.7,3.5-2.5,5.8-1.6
	c1,0.4,0.6-0.7,0.5-1.2c-0.5-1.6-1.4-1.5-2.9-1.1c-11.3,3.3-13.5,9.3-7,19.2C160.1,222.6,160.8,223.5,161.7,224.7z"/>
<path class="st22" d="M212.3,193.9c-1,1.3-1.1,2.6,0.3,3.7c-1.1,7.5-2.1,14.9-3.2,22.4c-1.9-0.3-1.2-1.7-1.1-2.8
	c0.5-4.9,1.1-9.8,1.6-14.7c0.1-0.9,0.2-1.9,0.1-2.7c-0.2-1.4-0.7-2.9-2.4-2.9c-1.8,0.1-1.3,1.8-1.4,2.9c-0.5,6.3-0.9,12.6-1.4,20.2
	c-0.7-2.6-1.1-4.1-1.4-5.5c-0.4-2-0.6-4-3.1-1.3c-1.1,1.2-2.7,0.7-3.7-0.5c-2.6-3.1-4.3-6.6-4.5-10.8c2.1,0.1,2.5,2.1,3.4,3.4
	c0.7,1,1.3,2.3,2.8,2c1.5-0.3,1.4-1.8,1.6-3.3c-2.4,0.9-4.3,0.6-4.9-2c-0.4-1.8-0.7-4,1.6-4.7c2.2-0.7,4.2,0.3,5.5,2.3
	c1.7,2.5,0.6,5.5,1.6,8.2c-0.4-1.7-0.5-3.2-0.5-4.8c-0.1-4.8-2-6.5-6.8-5.8c-2.1,0.3-4.2,1.1-6.2-0.4c-1.4-1.3-2.2-2.8,0.6-2.8
	c6.3,0,12.5-1.1,18.8,0.7c2.8,0.8,0.9-2.5,2.4-3.2C212.7,192.3,212.2,193.1,212.3,193.9z"/>
<path class="st23" d="M187.7,381.1c-2.9-1.6-5.4-2.5-6.9-4.9c-1.1-2-0.8-3.8,1.2-4.6c1.9-0.8,3,0.5,3,2.3c0,2.4,2.1,2,3.3,2.5
	c2.2,0.8,4.5,1.2,6.2,2.9c2.1,2.1,3.3,4.6,2.3,7.5c-1,3.1-3.7,4.4-6.5,5.4c-1.4,0.5-2.1-0.1-1.8-1.6c0.2-1.1,0.6-2.1,0.5-3.2
	c-0.1-1.4-1-2.6-2.4-3.1c-0.9-0.3-1.4,0.4-1.7,1.1c-0.8,1.6,0.3,2,1.4,2.7c1.5,0.9,1.2,2.5,0,3.5c-1.7,1.5-3.2,0.5-4.3-0.9
	C179.8,388.1,181.6,381.3,187.7,381.1z"/>
<path class="st24" d="M212.3,373.3c-4.4,6.2,4.5,3.3,4.3,6.5c-7,3.2-11.4,6.7-3.2,12.1c-5.5,1.8-10.6,0.8-13.2-2.9
	c-2.4-3.4-2-7,0.1-10.4C203.1,373.6,206.8,372.1,212.3,373.3z"/>
<path class="st25" d="M232.7,383c0.5,2.3-0.8,4.6,1.4,6.6c1.2,1,0.7,2.7-0.8,3.4c-1.5,0.7-2.7,0.1-3.5-1.3c-0.3-0.6-0.5-1.5-0.4-2.2
	c0.5-3.7-0.1-6.1-4.8-5.6c-2.4,0.3-4.3-1.6-4.9-4.1c-0.7-2.8,0.9-4.8,3-6.3c2.2-1.6,4.6-1.5,6.9,0.1
	C232.9,376,233.2,379.5,232.7,383z"/>
<path class="st26" d="M178,386c-0.1,3.5-4.7,7.7-8.3,7.3c-2.1-0.2-4.1-0.9-3.7-3.7c0.4-2.9,2.6-3.5,5.1-3.6c1.1-0.1,2.4,1.7,3.2,0.1
	c0.8-1.5-0.7-2.5-1.6-3.5c-1.9-2-3.9-3.9-5.8-5.9c-1.1-1.1-1.2-2.5-0.5-3.8c0.4-0.9,1.3-1.3,2.3-1.3c1.7,0,2.5,1.1,2.6,2.7
	c0.1,1.9,1.8,2.8,2.9,4C176.5,381,178,384.1,178,386z"/>
<path class="st27" d="M128.9,230.2c0.3-0.3,0.6-0.7,0.9-1c3.5-0.6,6.1,0.7,7.8,3.6c1.6,2.8,4.8,3.7,6.6,6.3c1.1,1.6,2.1,3.2,1.1,5.1
	c-1,2-3,1.9-4.9,1.6c-5.3-1-10.1-3.4-15.8-6.1c4-0.4,6.4,1.9,9.2,2.4c1.8,0.3,3.6,0.8,5.4,1c1.2,0.1,2.5,0.1,3.2-1.3
	c0.7-1.4-0.2-2.4-0.9-3.4c-1-1.4-1.9-0.9-3,0c-0.4,0.4-1.5,0-2.2,0c-2.3-0.9-2.5-3.1-3.2-5c-1,2.6,3.4,4.2,1.4,6.9
	C129.1,239.8,127.2,236.5,128.9,230.2z"/>
<path class="st28" d="M190.2,196.9c0.8-0.1,1.5-0.2,2.3-0.2c12.4-0.4,12.4-0.4,11.4,12c-1.4-1-1.1-2.4-1.2-3.7
	c-0.1-1.9-0.5-3.7-1.6-5.2c-1.2-1.6-2.7-3-4.6-1.7c-1.6,1.1-1.4,3.1-0.5,4.6c1.6,2.6,2.9,0.1,4.4-0.8c0.3,1.4,0.8,2.6,0.8,3.8
	c0,1.6-0.4,3.2-2.1,3.8c-1.6,0.5-2.6-0.6-3.4-1.8c-1.2-1.9-2.4-3.8-3.6-5.8C191.4,200.3,190.8,198.6,190.2,196.9z"/>
<path class="st29" d="M119.8,341.7c1.2,2.4,2,1.8,2.8-0.3c0.8-2,2.6-3.9,4.5-2.9c1.7,0.8,3.4,3.2,3.6,5c0.2,2.3-2.3,3.5-4.6,3.5
	c-3.5,0-4,1.3-2.4,4.2c0.6,1-0.2,1.7-0.5,3.2c-1.4-1.2-2.8-2.5-2.5-3.8c0.7-2.8-0.9-3.4-2.8-4.7c-2.6-1.8,0.4-3.6,1.2-5.3
	C120,340.5,120.2,341,119.8,341.7z"/>
<path class="st30" d="M175.1,202.4c0.4-2.3,0.5-5,3.3-4.8c3.3,0.2,3.8,3.3,3.8,5.9c0,1.9,0.1,4.9-3,4.6
	C176.2,207.7,175.6,204.8,175.1,202.4z"/>
<path class="st29" d="M269.9,339.3c-0.3,0.6-0.5,1.3-0.8,1.9c-2.3,0.5-3.6-0.9-4.6-2.6c-0.9-1.6-2.2-3.2-1-5.1
	c1.3-2.1,3.5-1.6,5.4-1.4c2.8,0.4,5.8,0.4,7.8,2.9c-1.7,1.2-3.5-0.1-5.2,0C268.6,335.2,268.2,336.5,269.9,339.3z"/>
<path class="st31" d="M119.8,341.7c-0.2-0.4-0.5-0.8-0.7-1.2c-0.5-0.1-0.9-0.2-1.4-0.3c-0.5-0.7-1.6-0.6-1.7-1.7
	c4.5-0.3,7.6-3.7,11.4-5.4c2.9-1.3,5.6-3,8.6-4.2C131.8,334.6,123.5,335.2,119.8,341.7z"/>
<path class="st32" d="M184.7,217c-0.2,1.8,0.1,4.5-2.3,4.2c-3-0.4-3.7-3.5-3.8-6.2c-0.1-1.9,0.1-4.8,2.7-4.4
	C184.4,211.2,184.6,214.3,184.7,217z"/>
<path class="st33" d="M290.9,259.3c5.1,2.7,9.4,4.5,12.3,8.4C299.3,265.2,293.3,266.3,290.9,259.3z"/>
<path class="st34" d="M214.3,208.6c0.2,1-0.1,2.1,0.8,2.8c0,2.1-0.5,4.2,0.5,6.5c0.9-1.2,0.6-3.5,2.7-3.1c1.1,0.2,0.9,1.5,0.9,2.4
	c0,1.8-0.7,3.6-2.5,4c-1.7,0.4-2.8-1.3-2.5-2.5C214.8,215.3,212.5,211.9,214.3,208.6z"/>
<path class="st35" d="M269.9,339.3c-2.4,1.3-3.1-0.5-3.4-2.1c-0.3-1.8,0.9-2.7,2.6-3c2.6-0.6,5,1.1,7.6,0.9c1,1.4-1,0.8-1,1.6
	C273.2,336.4,270,334.6,269.9,339.3z"/>
<path class="st11" d="M134.6,240.3c0.6-1.7,0-2.9-1.7-3.7c-2.2-1-2.3-2.6-1.4-4.5c0.5-1,1.2-1.5,2.2-1.1c1.9,0.8,2.3,2,1.1,3.9
	c-0.8,1.4,1,2.3,1.6,3.5C135.8,239,135.2,239.7,134.6,240.3z"/>
<path class="st36" d="M264.5,338.6c1.6,0.8,2.6,2.6,4.6,2.6c4,2.3,3.4-1.8,4.7-3.4c1.5,1.7,1,3.3,0,5c-1.9,2.2-3.6,2.8-5.7,0.1
	c-1-1.3-2.4-2.2-3.7-3.2C264.5,339.3,264.5,338.9,264.5,338.6z"/>
<path class="st37" d="M130.8,254.3c-1.4,2-4-0.2-5.5,1.6c-3.2-0.4-6-1.7-8.8-3.6C121.3,252.9,125.9,254.9,130.8,254.3z"/>
<path class="st38" d="M277.1,300.5c0.5,0.1,1,0.2,1.5,0.3c1,1,3.4-1,3.6,1.7c-1.2,0.4-2.7-0.3-3.8,0.8c-2.6-0.3-5.2-0.5-7.8-0.8
	c0-0.2,0-0.3,0-0.5C272.8,301.4,274.9,300.9,277.1,300.5z"/>
<path class="st29" d="M277.5,283.2c0.8,0.9,2,0.7,3,0.8c-3.3,0.5-6.5,1.1-9.8,1.6C272.5,283.2,275,283.3,277.5,283.2z"/>
<path class="st39" d="M249.7,238.4c-1.1,0.2-1.5-0.5-1.4-1.3c0.2-1.3,0.8-2.3,2.1-2.8c1-0.4,1.5,0.3,1.6,1
	C252,236.9,250.9,237.7,249.7,238.4z"/>
<path class="st40" d="M128.9,274.3c-0.5,0.9-1.3,1.4-2.2,1.1c-1-0.3-2.6-0.5-2.2-2.2c0.2-1,1.3-1.1,2.2-0.8
	C127.7,272.6,128.8,272.9,128.9,274.3z"/>
<path class="st41" d="M269.1,257.1c0.3,0.3,0.7,0.6,1,0.9c-2.2,1.6-4.5,2.9-7.7,3.8C264.3,258.8,266.7,258,269.1,257.1z"/>
<path class="st30" d="M236.4,229.1c-1-0.2-0.9-1.1-0.8-1.8c0.1-1.3,0.7-2.5,2-2.7c1.2-0.1,1.3,0.9,1.1,1.9
	C238.4,227.8,237.9,228.9,236.4,229.1z"/>
<path class="st2" d="M200.2,323.6c-13.3,0.1-24.3-11-24.6-24.9c-0.3-13.8,10.8-25.7,24.3-25.8c13.4-0.1,24.6,11.5,24.6,25.5
	C224.4,312.1,213.5,323.5,200.2,323.6z"/>
<path class="st42" d="M247,210.6c2.7,0.8,4,1.8,1.9,4.5c-2.3,3-4.1,6.4-6.4,10c-1.1-3.8-2.3-6.9,2.6-8.5
	C248,215.6,245.9,212.7,247,210.6z"/>
<path class="st43" d="M261.3,228.8c-2.2,1.9-4.4,3.8-5.8,5C255.9,227.6,255.9,227.6,261.3,228.8z"/>
<path class="st44" d="M282.2,302.4c-1-0.9-2.9-0.1-3.6-1.7c0.7-0.3,1.6-0.3,2.1-0.8c3.6-3.8,4.9-0.8,6.5,2
	C285.4,303,283.8,302,282.2,302.4z"/>
<path class="st45" d="M273.8,342.9c0-1.7,0-3.3,0-5c2.5,0,2.9,2.2,4.3,4.1C276.5,342.3,275.1,342.6,273.8,342.9z"/>
<path class="st35" d="M286.2,281.9c1.6-2.4,0.7-6.3,4.7-6.5C292.2,281.1,292.2,281.1,286.2,281.9z"/>
<path class="st46" d="M101.4,331.8c-0.1-3.4,1.6-5.5,3.9-7.3c0.7-0.5,1.6-1.5,2.2-0.4c0.5,0.9,1.9,2.5,0.4,3.2
	c-4.5,2.1-3.1,5.3-2.1,8.6c0.2,0.8,1.2,1.8,0.1,2.4c-1.2,0.7-2-0.4-2.6-1.3C101.9,335.6,101.9,333.5,101.4,331.8z"/>
<path class="st43" d="M96.7,291.7c-3.9-5.8-1-12.8,4.9-13.4c1-0.1,2.4-0.6,2.4,1.2c0,0.9,0.5,2.6-1.1,2.6c-5.5-0.1-4.8,4-5.5,7.4
	C97.4,289.9,97.1,290.4,96.7,291.7z"/>
<path class="st47" d="M111.8,284.9c2.9,0.3,5.7,0.7,8.7,1C114.1,291,114.1,291,111.8,284.9z"/>
<path class="st48" d="M124,269.4c-7.7,2.3-7.7,2.3-9.1-2.9C118.1,266.9,120.9,268.1,124,269.4z"/>
<path class="st49" d="M135.3,223.6c4.3-5.5,4.3-5.5,7.8-1c1.6,2,3.1,4.1,5.5,7.2C143.2,227.9,141,222.7,135.3,223.6z"/>
<path class="st50" d="M190.2,381.7c3.2,1.2,4.7,2.2,2.8,5.4C192,385.3,191.3,383.9,190.2,381.7z"/>
<path class="st51" d="M205.9,389.6c-4.6-3.4-4.7-8.5-0.6-11.4c0.8-0.6,1.6-1.1,2.4-0.1c0.7,0.8,1.2,1.4,0.4,2.7
	C205.4,385.2,205.5,385.3,205.9,389.6z"/>
<path class="st52" d="M229.4,380.2c-2.4-0.3-4.9,1.3-6.1-0.9c-0.7-1.3,1.2-3,2.6-3.2C228.8,375.4,228.3,378.2,229.4,380.2z"/>
<path class="st11" d="M178.8,205.7c-1.2-0.6-1.4-1.6-1.4-2.6c0.1-1.2,0.1-2.7,1.7-2.7c1.5-0.1,1.2,1.5,1.3,2.4
	C180.5,204,179.9,205.1,178.8,205.7z"/>
<path class="st11" d="M181.2,212.5c2,2.7,1.9,4.4,0.9,6.6C180.2,217.2,180.4,215.4,181.2,212.5z"/>
</svg>
